<?xml version="1.0" encoding="utf-8"?><svg viewBox="0 0 35.29 57.71" xmlns="http://www.w3.org/2000/svg" xmlns:xlink="http://www.w3.org/1999/xlink"><style>:root>svg{display:none}:root>svg:target{display:block}</style><svg viewBox="0 0 35.291 57.707" id="icon-arrow" xmlns="http://www.w3.org/2000/svg"><path d="M35.29 28.853c0-.113.003-.225-.002-.338a8.094 8.094 0 00-2.138-5.213L14.116 2.624A8.133 8.133 0 002.15 13.64l14.004 15.213L2.15 44.066a8.133 8.133 0 0011.967 11.016L33.15 34.404a8.094 8.094 0 002.138-5.213c.005-.113.001-.225.002-.338"/></svg><svg fill="none" viewBox="0 0 23 23" id="icon-phone" xmlns="http://www.w3.org/2000/svg"><path d="M14.2 3.938A6.888 6.888 0 0119.062 8.8m-5.574-2.206a4.132 4.132 0 012.917 2.918m-7.958 1.714a7.248 7.248 0 003.356 3.341.681.681 0 00.673-.05l2.152-1.435a.689.689 0 01.652-.06l4.025 1.725a.686.686 0 01.412.713 4.126 4.126 0 01-4.092 3.602A11.688 11.688 0 013.937 7.376 4.126 4.126 0 017.54 3.283a.685.685 0 01.713.412L9.98 7.724a.689.689 0 01-.057.647l-1.43 2.184a.68.68 0 00-.046.671v0z" stroke="#503761" stroke-linecap="round" stroke-linejoin="round"/></svg><svg fill="none" viewBox="0 0 24 24" id="icon-pin" xmlns="http://www.w3.org/2000/svg"><path d="M21 10c0 7-9 13-9 13s-9-6-9-13a9 9 0 1118 0z" stroke="#503761" stroke-linecap="round" stroke-linejoin="round"/><path d="M12 13a3 3 0 100-6 3 3 0 000 6z" stroke="#503761" stroke-linecap="round" stroke-linejoin="round"/></svg></svg>