<?xml version="1.0" encoding="UTF-8"?>
<svg fill="none" viewBox="0 0 23 23"  xmlns="http://www.w3.org/2000/svg" xmlns:xlink="http://www.w3.org/1999/xlink">
   <path d="M14.1997 3.9375C15.3652 4.25095 16.4278 4.86513 17.2812 5.71853C18.1346 6.57193 18.7488 7.63459 19.0623 8.80007" stroke="#503761" stroke-width="1" stroke-linecap="round" stroke-linejoin="round"/>
        <path d="M13.4878 6.59445C14.1871 6.78252 14.8247 7.15103 15.3367 7.66307C15.8488 8.17511 16.2173 8.81271 16.4053 9.512" stroke="#503761" stroke-width="1" stroke-linecap="round" stroke-linejoin="round"/>
        <path d="M8.44718 11.2263C9.16032 12.6843 10.3421 13.8607 11.8033 14.5672C11.9102 14.6179 12.0285 14.6398 12.1465 14.6309C12.2644 14.622 12.378 14.5825 12.4761 14.5163L14.6276 13.0816C14.7228 13.0182 14.8322 12.9795 14.9461 12.969C15.06 12.9585 15.1747 12.9767 15.2798 13.0217L19.3049 14.7467C19.4416 14.8048 19.5558 14.9058 19.6302 15.0344C19.7045 15.163 19.7351 15.3123 19.7173 15.4597C19.59 16.4552 19.1043 17.3702 18.351 18.0334C17.5978 18.6966 16.6286 19.0624 15.625 19.0625C12.5253 19.0625 9.55252 17.8311 7.36069 15.6393C5.16886 13.4475 3.9375 10.4747 3.9375 7.37499C3.93755 6.37139 4.30342 5.40222 4.96659 4.64895C5.62975 3.89568 6.54475 3.40996 7.54026 3.28273C7.68774 3.26489 7.83703 3.29545 7.96562 3.36983C8.09422 3.4442 8.19517 3.55835 8.25325 3.69508L9.97978 7.72365C10.0244 7.82785 10.0426 7.94148 10.0328 8.05442C10.0229 8.16735 9.9852 8.27609 9.92312 8.37095L8.49343 10.5555C8.42836 10.6537 8.38989 10.7672 8.38179 10.8848C8.37368 11.0024 8.39621 11.12 8.44718 11.2263V11.2263Z" stroke="#503761" stroke-width="1" stroke-linecap="round" stroke-linejoin="round"/>  
</svg>