<?xml version="1.0" encoding="UTF-8"?>
<svg  viewBox="0 0 35.2908 57.7068" xmlns="http://www.w3.org/2000/svg" xmlns:xlink="http://www.w3.org/1999/xlink">
    <path transform="matrix(1,0,0,-1,35.2901,28.8534)" d="M 0 0 C -.001 .113 .003 .225 -.002 .338 C -.069 2.209 -.773 4.066 -2.14 5.551 L -21.174 26.229 C -24.216 29.533 -29.361 29.746 -32.665 26.704 C -35.97 23.662 -36.183 18.518 -33.141 15.213 L -19.137 0 L -33.141 -15.213 C -36.183 -18.518 -35.97 -23.662 -32.665 -26.704 C -29.361 -29.746 -24.216 -29.533 -21.174 -26.229 L -2.14 -5.551 C -.773 -4.066 -.069 -2.209 -.002 -.338 C .003 -.225 -.001 -.113 0 0 "/> 
</svg>